# xmcd
#
# Track frame offsets: 
#        150
#        21037
#        38902
#        64887
#        86732
#        100780
#        118640
#        137482
#        156457
#        174717
#
# Disc length: 2609 seconds
#
# Revision: 0
# Processed by: cddbd v1.5.1PL0 Copyright (c) Steve Scherf et al.
# Submitted via: ExactAudioCopy v0.95a5
#
DISCID=830a2f0a
DTITLE=Leslie Bee - The Way I Feel
DYEAR=1998
DGENRE=Blues
TTITLE0=The Wildest Gal in Town
TTITLE1=Hadley
TTITLE2=The Man I Love
TTITLE3=There You are Again
TTITLE4=The Lady is a Tramp
TTITLE5=The Island
TTITLE6=Frankie and Johnny
TTITLE7=Try'in Times
TTITLE8=The Laziest Girl in Town
TTITLE9=Ev'ery Time We Say Good Bye
EXTD=
EXTT0=
EXTT1=
EXTT2=
EXTT3=
EXTT4=
EXTT5=
EXTT6=
EXTT7=
EXTT8=
EXTT9=
PLAYORDER=
